<?xml version="1.0" encoding="UTF-8"?>
<svg width="815px" height="815px" viewBox="0 0 815 815" version="1.1" xmlns="http://www.w3.org/2000/svg" xmlns:xlink="http://www.w3.org/1999/xlink">
    <title>Artboard</title>
    <defs>
        <path d="M524.03,533.555 C522.42,533.555 520.78,533.357 519.14,532.94 L51.72,414.702 L15.068,405.432 C6.281,403.209 0.126,395.302 0.126,386.238 L0.126,20.783 L0.126,53.587 L435.74,168.865 C435.77,169.966 435.84,171.083 435.94,172.212 C438.44,198.526 461.93,222.244 488.42,225.187 C490.24,225.39 492.03,225.489 493.78,225.489 C513.64,225.489 528.59,212.764 531.55,194.218 L543.79,197.458 L543.79,513.747 C543.79,520.38 540.58,526.102 535.76,529.666 C532.44,532.122 528.36,533.555 524.03,533.555 M146.43,173.907 L144.77,174.201 C144.38,174.272 144.09,174.613 144.08,175.015 L143.07,314.479 C143.07,314.781 143.07,315.084 143.07,315.385 C143.07,345.086 153.68,371.356 171.39,394.934 C189.1,418.516 213.9,439.434 242.34,458.545 C242.48,458.637 242.64,458.686 242.8,458.686 C242.87,458.686 242.94,458.678 243,458.661 C260.44,454.337 276.09,447.698 289.68,439.887 C290.26,440.279 290.84,440.671 291.42,441.062 C357.92,424.569 398.39,374.209 397.38,354.243 L398.39,214.778 L296.3,139.966 L276.13,143.55 L270.83,139.665 L168.07,157.929 L146.43,173.907 M0.126,198.764 L0.126,331.61 L90.22,354.189 C92.09,354.67 93.91,354.9 95.66,354.9 C106.38,354.9 114.24,346.231 113.94,333.817 L111.94,245.31 C111.68,234.195 105.17,225.719 94.86,223.075 L0.126,198.764 M0.126,113.569 L0.126,170.16 L72.01,189.934 C74.42,190.598 76.79,190.914 79.09,190.914 C90.9,190.915 100.6,182.537 102.03,169.9 L102.03,169.899 C103.73,154.805 93,139.121 78.19,135.046 L0.126,113.569 M543.79,148.291 C543.79,139.227 537.63,131.32 528.85,129.098 L24.78,1.589 C23.2,1.189 21.62,0.99 20.07,0.975 C21.62,0.99 23.2,1.188 24.78,1.589 L528.85,129.098 C537.63,131.32 543.79,139.227 543.79,148.291" id="path-1"></path>
        <path d="M15.42,302.062 C14.84,301.671 14.26,301.279 13.68,300.887 C14.44,300.453 15.19,300.016 15.93,299.575 C59.56,289.564 95.94,254.006 95.92,216.134 C95.92,215.736 95.92,215.342 95.91,214.944 L96.92,75.478 L0.13,4.55 L20.3,0.966 L122.39,75.778 L121.38,215.243 C122.39,235.209 81.92,285.569 15.42,302.062" id="path-3"></path>
        <path d="M58.78,57.489 C57.03,57.489 55.24,57.39 53.42,57.187 C26.93,54.244 3.44,30.526 0.94,4.212 C0.84,3.083 0.77,1.966 0.74,0.865 L96.55,26.218 C93.59,44.764 78.64,57.489 58.78,57.489" id="path-5"></path>
        <path d="M177.881283,54.609 C177.98,44.408 172.23,36.773 162.78,34.579 L16.44,0.587 C8.43,-1.274 1.79,5.378 1.69,15.371 L0.77887801,104.935 C0.69,114.394 6.02,121.474 14.78,123.509 L152.6,155.122 C164.87,157.972 176.97,144.581 177.11,131.332 L177.881283,54.609" id="path-7"></path>
        <path d="M65.88,65.081 C46.74,55.874 46.64,40.994 65.67,31.845 C84.69,22.695 115.64,22.742 134.78,31.949 C153.93,41.155 154.03,56.036 135,65.185 C115.97,74.334 85.03,74.287 65.88,65.081 Z M173.17,68.293 L173.17,68.293 C166.35,65.016 171.13,59.437 180.74,59.451 C191.61,59.468 200.4,55.241 200.370077,50.012 L200.35,47.319 C200.32,42.09 191.47,37.837 180.6,37.82 C170.99,37.806 166.14,32.213 172.91,28.956 C180.58,25.27 180.54,19.273 172.83,15.563 L168.86,13.655 C161.14,9.945 148.67,9.926 141.01,13.613 C134.23,16.87 122.6,14.538 122.57,9.918 C122.54,4.688 113.69,0.435 102.82,0.419 L97.22,0.409954717 C86.34,0.394 77.56,4.62 77.59,9.851 C77.62,14.471 66.02,16.767 59.2,13.489 C51.49,9.779 39.02,9.761 31.36,13.447 L27.41,15.345 C19.74,19.031 19.78,25.027 27.5,28.737 C34.31,32.014 29.54,37.593 19.93,37.578 C9.05,37.562 0.26,41.788 0.299864021,47.019 L0.32,49.71 C0.35,54.939 9.19,59.192 20.07,59.209 C29.68,59.224 34.53,64.816 27.75,68.073 C20.09,71.76 20.13,77.756 27.84,81.466 L31.81,83.375 C39.53,87.085 51.99,87.104 59.66,83.417 C66.43,80.16 78.06,82.492 78.09,87.112 C78.13,92.342 86.97,96.595 97.85,96.61 L103.44,96.6190511 C114.32,96.636 123.11,92.409 123.08,87.179 C123.05,82.559 134.65,80.263 141.46,83.54 C149.18,87.25 161.65,87.269 169.31,83.582 L173.26,81.685 C180.92,77.998 180.88,72.002 173.17,68.293 L173.17,68.293 Z" id="path-9"></path>
        <path d="M95.66,156.9 C93.91,156.9 92.09,156.67 90.22,156.189 L0.126,133.61 L0.126,0.764 L94.86,25.075 C105.17,27.719 111.68,36.195 111.94,47.31 L113.94,135.817 C114.24,148.231 106.38,156.9 95.66,156.9" id="path-11"></path>
        <path d="M79.09,77.914 C76.79,77.914 74.42,77.598 72.01,76.934 L0.126,57.16 L0.126,0.569 L78.19,22.046 C93,26.121 103.73,41.805 102.03,56.899 L102.03,56.9 C100.6,69.537 90.9,77.915 79.09,77.914" id="path-13"></path>
        <path d="M192.63,64.154 C192.37,53.04 185.86,44.564 175.55,41.919 L15.898,0.95 C7.156,-1.294 0.215,5.779 0.474,16.666 L2.797,114.252 C3.043,124.559 9.081,132.419 18.637,134.871 L170.91,173.034 C184.29,176.47 194.98,167.097 194.63,152.661 L192.63,64.154" id="path-15"></path>
        <path d="M0.632,30.116 C0.632,30.116 8.37,18.981 23.191,22.846 C34.522,25.8 28.621,26.74 42.153,27.598 C50.132,28.103 62.154,12.524 81.898,16.39 C117.64,23.387 129.32,-9.251 145.08,3.79 L146.8,80.548 L0.89,41.655 L0.632,30.116" id="path-17"></path>
    </defs>
    <g id="Artboard" stroke="none" stroke-width="1" fill="none" fill-rule="evenodd">
        <g id="Group" transform="translate(0.456087, 80.613949)">
            <path d="M738.653913,448.703051 L390.723913,363.629051 L390.723913,83.6320505 C390.723913,49.0550505 423.123913,23.6210505 456.713913,31.8340505 L697.993913,90.8320505 C721.863913,96.6680505 738.653913,118.058051 738.653913,142.630051 L738.653913,448.703051" id="Fill-3" fill="#F0E8FF"></path>
            <path d="M599.623913,611.291051 L148.583913,493.015051 C135.115913,489.484051 131.949913,471.738051 143.493913,464.500051 L344.673913,338.351051 L797.693913,457.144051 C814.813913,461.633051 818.833913,484.198051 804.153913,493.401051 L621.263913,608.082051 C614.883913,612.081051 607.063913,613.241051 599.623913,611.291051" id="Fill-4" fill="#F0E8FF"></path>
            <path d="M667.343913,148.663051 L163.273913,21.1550505 C156.783913,19.5110505 150.383913,21.2770505 145.733913,25.1550505 L128.006913,37.2500505 L138.623913,51.6930505 L138.623913,405.804051 C138.623913,414.867051 144.783913,422.775051 153.563913,424.998051 L653.993913,562.941051 C653.993913,562.941051 668.983913,552.763051 673.423913,549.816051 C678.703913,546.311051 682.283913,540.321051 682.283913,533.312051 L682.283913,167.857051 C682.283913,158.793051 676.133913,150.886051 667.343913,148.663051" id="Fill-5" fill="#7368B0"></path>
            <g id="Group-8" transform="translate(119.543913, 32.386051)">
                <mask id="mask-2" fill="white">
                    <use xlink:href="#path-1"></use>
                </mask>
                <g id="Clip-7"></g>
                <path d="M524.03,533.555 C522.42,533.555 520.78,533.357 519.14,532.94 L51.72,414.702 L15.068,405.432 C6.281,403.209 0.126,395.302 0.126,386.238 L0.126,20.783 L0.126,53.587 L435.74,168.865 C435.77,169.966 435.84,171.083 435.94,172.212 C438.44,198.526 461.93,222.244 488.42,225.187 C490.24,225.39 492.03,225.489 493.78,225.489 C513.64,225.489 528.59,212.764 531.55,194.218 L543.79,197.458 L543.79,513.747 C543.79,520.38 540.58,526.102 535.76,529.666 C532.44,532.122 528.36,533.555 524.03,533.555 M146.43,173.907 L144.77,174.201 C144.38,174.272 144.09,174.613 144.08,175.015 L143.07,314.479 C143.07,314.781 143.07,315.084 143.07,315.385 C143.07,345.086 153.68,371.356 171.39,394.934 C189.1,418.516 213.9,439.434 242.34,458.545 C242.48,458.637 242.64,458.686 242.8,458.686 C242.87,458.686 242.94,458.678 243,458.661 C260.44,454.337 276.09,447.698 289.68,439.887 C290.26,440.279 290.84,440.671 291.42,441.062 C357.92,424.569 398.39,374.209 397.38,354.243 L398.39,214.778 L296.3,139.966 L276.13,143.55 L270.83,139.665 L168.07,157.929 L146.43,173.907 M0.126,198.764 L0.126,331.61 L90.22,354.189 C92.09,354.67 93.91,354.9 95.66,354.9 C106.38,354.9 114.24,346.231 113.94,333.817 L111.94,245.31 C111.68,234.195 105.17,225.719 94.86,223.075 L0.126,198.764 M0.126,113.569 L0.126,170.16 L72.01,189.934 C74.42,190.598 76.79,190.914 79.09,190.914 C90.9,190.915 100.6,182.537 102.03,169.9 L102.03,169.899 C103.73,154.805 93,139.121 78.19,135.046 L0.126,113.569 M543.79,148.291 C543.79,139.227 537.63,131.32 528.85,129.098 L24.78,1.589 C23.2,1.189 21.62,0.99 20.07,0.975 C21.62,0.99 23.2,1.188 24.78,1.589 L528.85,129.098 C537.63,131.32 543.79,139.227 543.79,148.291" id="Fill-6" mask="url(#mask-2)"></path>
            </g>
            <path d="M663.333913,229.844051 L663.333913,180.677051 C663.333913,171.613051 657.173913,163.706051 648.393913,161.484051 L144.323913,33.9750505 C131.814913,30.8110505 119.669913,40.2660505 119.669913,53.1680505 L119.669913,85.9730505 L663.333913,229.844051" id="Fill-9" fill="#50438F"></path>
            <g id="Group-12" transform="translate(395.543913, 171.386051)">
                <mask id="mask-4" fill="white">
                    <use xlink:href="#path-3"></use>
                </mask>
                <g id="Clip-11"></g>
                <path d="M15.42,302.062 C14.84,301.671 14.26,301.279 13.68,300.887 C14.44,300.453 15.19,300.016 15.93,299.575 C59.56,289.564 95.94,254.006 95.92,216.134 C95.92,215.736 95.92,215.342 95.91,214.944 L96.92,75.478 L0.13,4.55 L20.3,0.966 L122.39,75.778 L121.38,215.243 C122.39,235.209 81.92,285.569 15.42,302.062" id="Fill-10" mask="url(#mask-4)"></path>
            </g>
            <path d="M160.213913,67.6460505 C160.593913,71.6820505 157.613913,74.5890505 153.553913,74.1370505 C149.483913,73.6850505 145.883913,70.0470505 145.503913,66.0110505 C145.113913,61.9740505 148.103913,59.0680505 152.163913,59.5190505 C156.223913,59.9710505 159.833913,63.6090505 160.213913,67.6460505" id="Fill-13" fill="#F5F6F7"></path>
            <path d="M182.323913,73.3460505 C182.703913,77.3820505 179.713913,80.2880505 175.653913,79.8370505 C171.593913,79.3860505 167.983913,75.7470505 167.603913,71.7110505 C167.223913,67.6740505 170.203913,64.7680505 174.273913,65.2190505 C178.333913,65.6710505 181.933913,69.3090505 182.323913,73.3460505" id="Fill-14" fill="#F5F6F7"></path>
            <path d="M203.973913,79.3090505 C204.363913,83.3460505 201.373913,86.2520505 197.313913,85.8010505 C193.253913,85.3490505 189.643913,81.7110505 189.263913,77.6750505 C188.883913,73.6380505 191.863913,70.7320505 195.923913,71.1830505 C199.993913,71.6350505 203.593913,75.2730505 203.973913,79.3090505" id="Fill-15" fill="#F5F6F7"></path>
            <path d="M61.2969134,95.5400505 C62.0259134,103.289051 56.3399134,108.374051 48.5989134,106.898051 C40.8569134,105.422051 33.9899134,97.9440505 33.2619134,90.1960505 C32.5339134,82.4470505 38.2189134,77.3620505 45.9599134,78.8370505 C53.7019134,80.3130505 60.5679134,87.7910505 61.2969134,95.5400505" id="Fill-78" fill="#F0E8FF"></path>
            <path d="M25.1009134,60.3030505 C34.2219134,57.1930505 53.0609134,54.7730505 72.1969134,76.5700505 C75.4809134,80.3100505 81.3169134,80.2440505 84.4239134,76.3570505 C86.9349134,73.2180505 86.7109134,68.6990505 83.8909134,65.8360505 C74.2629134,56.0610505 50.7079134,36.8860505 20.5389134,45.4450505 C15.5929134,46.8470505 13.2669134,52.5030505 15.8939134,56.9230505 C17.7759134,60.0910505 21.6129134,61.4910505 25.1009134,60.3030505" id="Fill-79" fill="#F0E8FF"></path>
            <path d="M14.8929134,24.5360505 C28.0779134,20.0470505 55.2929134,16.5720505 82.9259134,48.1040505 C87.6309134,53.4740505 96.0459134,53.2950505 100.503913,47.7190505 C104.139913,43.1720505 103.781913,36.6360505 99.6949134,32.4900505 C85.7529134,18.3480505 51.6979134,-9.32594947 8.10091339,3.14805053 C1.04491339,5.16805053 -2.16808661,13.3550505 1.58191339,19.6650505 C4.30191339,24.2430505 9.85191339,26.2530505 14.8929134,24.5360505" id="Fill-80" fill="#F0E8FF"></path>
            <path d="M374.483913,472.945051 C321.953913,454.488051 286.173913,389.214051 286.603913,329.780051 L264.463913,207.407051 L287.613913,190.315051 L390.373913,172.051051 L492.463913,246.864051 L491.453913,386.330051 C492.463913,435.063051 432.863913,480.368051 374.483913,472.945051" id="Fill-81" fill="#9463F2"></path>
            <path d="M374.483913,472.945051 C321.953913,454.488051 286.173913,389.214051 286.603913,329.780051 L367.223913,189.144051 L390.373913,172.051051 L492.463913,246.864051 L491.453913,386.330051 C492.463913,435.063051 432.863913,480.368051 374.483913,472.945051" id="Fill-82" fill="#8559DA"></path>
            <path d="M374.483913,472.945051 C321.953913,454.488051 286.173913,389.214051 286.603913,329.780051 L469.313913,263.957051 L492.463913,246.864051 L491.453913,386.330051 C492.463913,435.063051 432.863913,480.368051 374.483913,472.945051" id="Fill-83" fill="#7B52C9"></path>
            <path d="M362.343913,490.240051 C305.263913,451.890051 263.013913,406.306051 263.453913,346.871051 L264.463913,207.407051 L367.223913,189.144051 L469.313913,263.957051 L468.303913,403.421051 C469.313913,423.387051 428.843913,473.747051 362.343913,490.240051" id="Fill-84" fill="#D2BAFF"></path>
            <path d="M362.343913,490.240051 L362.813913,489.548051 C334.463913,470.503051 309.803913,449.684051 292.263913,426.320051 C274.723913,402.951051 264.283913,377.066051 264.273913,347.771051 C264.273913,347.473051 264.273913,347.176051 264.283913,346.879051 L265.283913,208.105051 L367.013913,190.026051 L468.473913,264.376051 L467.463913,403.415051 L467.463913,403.463051 C467.483913,403.692051 467.483913,403.927051 467.483913,404.167051 C467.493913,409.010051 465.053913,415.840051 460.293913,423.512051 C453.153913,435.032051 440.873913,448.488051 424.253913,460.564051 C407.633913,472.643051 386.663913,483.351051 362.143913,489.432051 L362.343913,490.240051 L362.813913,489.548051 L362.343913,490.240051 L362.543913,491.047051 C395.543913,482.863051 422.153913,466.387051 440.533913,449.372051 C449.723913,440.863051 456.853913,432.220051 461.703913,424.389051 C466.553913,416.551051 469.143913,409.546051 469.153913,404.167051 C469.153913,403.900051 469.143913,403.638051 469.133913,403.379051 L468.303913,403.421051 L469.133913,403.427051 L470.143913,263.963051 C470.143913,263.696051 470.013913,263.443051 469.803913,263.285051 L367.713913,188.472051 C367.533913,188.337051 367.303913,188.284051 367.073913,188.324051 L264.313913,206.587051 C263.923913,206.658051 263.633913,206.999051 263.623913,207.401051 L262.613913,346.865051 C262.613913,347.167051 262.613913,347.470051 262.613913,347.771051 C262.613913,377.472051 273.223913,403.742051 290.933913,427.320051 C308.643913,450.902051 333.443913,471.820051 361.883913,490.931051 C362.073913,491.061051 362.313913,491.104051 362.543913,491.047051 L362.343913,490.240051" id="Fill-85" fill="#140078"></path>
            <path d="M361.973913,467.550051 C323.453913,430.823051 279.683913,394.208051 280.023913,346.675051 L280.833913,235.138051 L363.023913,220.532051 L444.663913,280.363051 L430.643913,351.955051 C430.293913,399.488051 361.973913,467.550051 361.973913,467.550051" id="Fill-86" fill="#FFFFFF"></path>
            <path d="M361.973913,467.550051 L363.023913,220.532051 L444.663913,280.363051 L443.853913,391.902051 C439.773913,415.172051 412.063913,447.926051 361.973913,467.550051" id="Fill-87" fill="#F0E8FF"></path>
            <g id="Group-90" transform="translate(554.543913, 200.386051)">
                <mask id="mask-6" fill="white">
                    <use xlink:href="#path-5"></use>
                </mask>
                <g id="Clip-89"></g>
                <path d="M58.78,57.489 C57.03,57.489 55.24,57.39 53.42,57.187 C26.93,54.244 3.44,30.526 0.94,4.212 C0.84,3.083 0.77,1.966 0.74,0.865 L96.55,26.218 C93.59,44.764 78.64,57.489 58.78,57.489" id="Fill-88" mask="url(#mask-6)"></path>
            </g>
            <path d="M651.093913,226.604051 L555.283913,201.251051 C554.723913,178.461051 570.963913,161.979051 593.573913,161.979051 C595.323913,161.979051 597.113913,162.078051 598.933913,162.281051 C625.423913,165.224051 648.913913,188.942051 651.403913,215.257051 C651.783913,219.224051 651.663913,223.022051 651.093913,226.604051" id="Fill-91" fill="#47388F"></path>
            <path d="M362.273913,397.051051 L326.293913,387.795051 C318.833913,385.876051 315.083913,382.114051 315.653913,378.126051 L315.573913,378.117051 L315.593913,306.078051 C315.593913,305.901051 315.593913,305.722051 315.603913,305.542051 L315.603913,305.336051 L315.623913,305.338051 C315.813913,303.248051 317.173913,301.086051 319.853913,299.083051 C324.793913,295.386051 332.993913,293.119051 341.193913,292.747051 C341.013913,259.581051 353.703913,250.495051 362.903913,248.262051 L362.793913,273.556051 C359.603913,278.663051 359.133913,287.936051 359.363913,295.264051 L362.703913,296.123051 L362.273913,397.051051" id="Fill-92" fill="#D1C7E6"></path>
            <path d="M400.743913,405.463051 C397.053913,405.463051 393.433913,405.066051 390.163913,404.226051 L362.273913,397.051051 L362.703913,296.123051 L384.473913,301.724051 C383.743913,278.072051 376.453913,272.024051 373.063913,270.331051 C371.993913,269.798051 370.213913,269.760051 369.723913,269.760051 C369.643913,269.760051 369.603913,269.761051 369.603913,269.761051 C369.433913,269.752051 369.273913,269.747051 369.123913,269.747051 C366.303913,269.747051 364.263913,271.214051 362.793913,273.556051 L362.903913,248.262051 C365.003913,247.751051 366.933913,247.599051 368.473913,247.599051 C370.763913,247.599051 372.223913,247.933051 372.223913,247.933051 C400.483913,251.368051 403.433913,287.984051 403.093913,306.513051 L418.013913,310.350051 C424.863913,312.115051 428.593913,315.440051 428.713913,319.066051 L428.733913,319.067051 L428.733913,329.742051 L428.983913,391.671051 L428.973913,391.671051 C428.983913,392.577051 428.753913,393.501051 428.313913,394.424051 C427.703913,395.995051 426.443913,397.572051 424.453913,399.062051 C419.023913,403.116051 409.703913,405.463051 400.743913,405.463051" id="Fill-93" fill="#C5B5E6"></path>
            <path d="M639.083913,227.876051 C641.573913,254.190051 622.123913,273.136051 595.633913,270.193051 C569.143913,267.249051 545.653913,243.532051 543.163913,217.217051 C540.663913,190.903051 560.123913,171.957051 586.603913,174.901051 C613.093913,177.844051 636.593913,201.562051 639.083913,227.876051" id="Fill-94" fill="#FFFCFA"></path>
            <g id="Group-115" transform="translate(605.543913, 283.386051)">
                <mask id="mask-8" fill="white">
                    <use xlink:href="#path-7"></use>
                </mask>
                <g id="Clip-114"></g>
                <path d="M177.881283,54.609 C177.98,44.408 172.23,36.773 162.78,34.579 L16.44,0.587 C8.43,-1.274 1.79,5.378 1.69,15.371 L0.77887801,104.935 C0.69,114.394 6.02,121.474 14.78,123.509 L152.6,155.122 C164.87,157.972 176.97,144.581 177.11,131.332 L177.881283,54.609" id="Fill-113" mask="url(#mask-8)"></path>
            </g>
            <path d="M686.343913,361.077051 C686.113913,380.326051 671.573913,392.235051 653.873913,387.675051 C636.163913,383.115051 621.993913,363.816051 622.213913,344.566051 C622.443913,325.317051 636.983913,313.408051 654.693913,317.968051 C672.403913,322.528051 686.573913,341.828051 686.343913,361.077051" id="Fill-116" fill="#FFFFFF"></path>
            <path d="M661.473913,346.084051 C661.463913,346.212051 661.443913,346.327051 661.433913,346.417051 C661.443913,346.316051 661.463913,346.203051 661.473913,346.084051 Z M665.333913,374.157051 C668.123913,374.904051 671.593913,371.518051 670.833913,368.768051 C670.093913,366.097051 669.123913,363.660051 668.283913,362.709051 C667.523913,361.858051 666.583913,361.286051 665.763913,360.782051 C664.913913,360.263051 663.813913,359.499051 662.743913,358.760051 C662.383913,358.513051 662.023913,358.264051 661.663913,358.022051 L659.503913,356.438051 C659.183913,356.136051 658.863913,355.834051 658.533913,355.533051 L658.313913,355.324051 C658.293913,355.181051 658.303913,355.016051 658.303913,354.883051 C658.273913,353.950051 658.233913,353.019051 658.203913,352.087051 C659.093913,351.388051 659.643913,350.229051 659.823913,348.849051 C661.283913,349.271051 661.623913,347.380051 661.773913,346.067051 C661.873913,345.134051 662.013913,342.817051 660.883913,342.277051 C660.913913,342.126051 660.933913,341.983051 660.963913,341.855051 C661.143913,341.058051 661.293913,340.240051 661.303913,339.369051 C661.303913,338.499051 661.153913,337.567051 660.763913,336.715051 C660.673913,336.517051 660.553913,336.310051 660.403913,336.173051 C660.423913,335.872051 660.333913,335.512051 660.223913,335.197051 C659.393913,332.732051 657.683913,330.793051 655.893913,329.808051 C654.103913,328.822051 652.243913,328.693051 650.503913,328.957051 C649.233913,329.153051 647.533913,329.801051 647.493913,331.947051 C647.483913,332.226051 647.543913,332.478051 647.643913,332.709051 C647.393913,332.667051 647.213913,332.866051 647.083913,333.082051 C646.713913,333.731051 646.583913,334.588051 646.603913,335.466051 C646.623913,336.344051 646.793913,337.249051 646.993913,338.145051 C647.023913,338.283051 647.053913,338.438051 647.083913,338.597051 C645.683913,338.203051 645.943913,340.865051 646.103913,341.943051 C646.283913,343.286051 646.683913,345.271051 648.003913,345.699051 C648.103913,346.297051 648.223913,346.891051 648.433913,347.467051 C648.723913,348.311051 649.133913,349.017051 649.613913,349.635051 L649.603913,349.673051 C649.633913,350.630051 649.663913,351.587051 649.703913,352.544051 C649.703913,352.625051 649.723913,352.777051 649.723913,352.875051 L649.433913,353.077051 C649.223913,353.229051 649.023913,353.380051 648.823913,353.532051 L648.813913,353.523051 L648.243913,353.601051 L648.243913,353.586051 L648.103913,353.598051 C647.733913,353.629051 647.343913,353.696051 646.963913,353.777051 L646.913913,353.783051 L646.913913,353.786051 C646.423913,353.890051 645.923913,354.018051 645.443913,354.147051 C644.563913,354.379051 643.673913,354.431051 642.813913,354.689051 C640.673913,355.332051 637.773913,357.986051 637.323913,362.809051 C637.123913,365.069051 638.243913,366.863051 640.233913,367.441051 L665.333913,374.157051 L665.333913,374.157051 Z" id="Fill-117" fill="#FF5995"></path>
            <path d="M745.813913,361.055051 L713.703913,352.787051 C709.613913,351.733051 705.523913,355.190051 705.473913,359.757051 C705.433913,362.888051 707.353913,365.563051 710.163913,366.286051 L742.273913,374.553051 C746.373913,375.608051 750.453913,372.151051 750.51426,367.584051 C750.543913,364.453051 748.623913,361.778051 745.813913,361.055051" id="Fill-118" fill="#FFFFFF"></path>
            <path d="M705.173567,384.800051 L705.173567,384.800051 C705.143913,387.931051 707.063913,390.607051 709.873913,391.329051 L765.253913,405.589051 C769.353913,406.644051 773.433913,403.188051 773.49426,398.620051 C773.523913,395.490051 771.603913,392.814051 768.793913,392.091051 L713.413913,377.831051 C709.313913,376.777051 705.233913,380.234051 705.173567,384.800051" id="Fill-119" fill="#FFFFFF"></path>
            <path d="M696.093913,363.266051 L695.293913,363.256051 C695.173913,373.802051 691.633913,382.641051 685.873913,388.844051 C680.123913,395.046051 672.153913,398.631051 663.053913,398.634051 C660.393913,398.634051 657.643913,398.327051 654.823913,397.688051 C643.823913,395.199051 633.863913,388.114051 626.663913,378.628051 C619.463913,369.145051 615.033913,357.278051 615.033913,345.295051 C615.033913,345.104051 615.033913,344.914051 615.033913,344.725051 C615.163913,334.178051 618.703913,325.339051 624.453913,319.135051 C630.213913,312.933051 638.183913,309.349051 647.283913,309.346051 C649.933913,309.346051 652.693913,309.652051 655.513913,310.292051 C666.513913,312.781051 676.463913,319.866051 683.673913,329.352051 C690.873913,338.835051 695.303913,350.700051 695.303913,362.683051 C695.303913,362.873051 695.303913,363.065051 695.293913,363.258051 L696.093913,363.266051 L696.893913,363.274051 C696.903913,363.078051 696.903913,362.881051 696.903913,362.683051 C696.903913,350.304051 692.343913,338.126051 684.943913,328.384051 C677.543913,318.645051 667.303913,311.325051 655.863913,308.732051 C652.933913,308.067051 650.063913,307.746049 647.283913,307.746049 C637.753913,307.743051 629.323913,311.524051 623.283913,318.047051 C617.233913,324.569051 613.563913,333.814051 613.433913,344.705051 C613.433913,344.901051 613.433913,345.099051 613.433913,345.295051 C613.433913,357.675051 617.993913,369.854051 625.393913,379.596051 C632.783913,389.335051 643.033913,396.655051 654.463913,399.248051 C657.403913,399.913051 660.273913,400.234052 663.053913,400.234052 C672.573913,400.237051 681.003913,396.456051 687.053913,389.933051 C693.103913,383.411051 696.773913,374.166051 696.893913,363.275051 L696.093913,363.266051" id="Fill-120" fill="#FFFFFF"></path>
            <path d="M261.873913,619.904051 C242.723913,610.697051 242.623913,595.817051 261.653913,586.667051 C280.683913,577.518051 311.623913,577.565051 330.773913,586.772051 C349.913913,595.978051 350.013913,610.858051 330.983913,620.007051 C311.963913,629.157051 281.013913,629.110051 261.873913,619.904051 Z M369.153913,623.115051 L369.153913,623.115051 C362.343913,619.838051 367.113913,614.259051 376.723913,614.274051 C387.603913,614.290051 396.393913,610.064051 396.354049,604.833051 L396.333913,602.142051 C396.303913,596.912051 387.463913,592.659051 376.583913,592.643051 C366.973913,592.628051 362.123913,587.035051 368.903913,583.779051 C376.563913,580.092051 376.523913,574.096051 368.813913,570.386051 L364.843913,568.477051 C357.123913,564.768051 344.663913,564.748051 336.993913,568.435051 L336.993913,568.436051 C330.223913,571.692051 318.593913,569.361051 318.563913,564.740051 C318.523913,559.510051 309.683913,555.257051 298.803913,555.240051 L293.203913,555.232999 C282.333913,555.216051 273.543913,559.443051 273.573913,564.672051 C273.603913,569.292051 262.003913,571.589051 255.193913,568.312051 C247.473913,564.602051 235.003913,564.583051 227.343913,568.270051 L223.393913,570.167051 C215.733913,573.854051 215.773913,579.850051 223.483913,583.560051 C230.293913,586.836051 225.523913,592.415051 215.913913,592.401051 C205.043913,592.384051 196.253913,596.611051 196.283837,601.841051 L196.303913,604.532051 C196.333913,609.762051 205.183913,614.015051 216.053913,614.032051 C225.663913,614.046051 230.513913,619.639051 223.743913,622.896051 C216.073913,626.582051 216.113913,632.578051 223.823913,636.288051 L227.793913,638.198051 C235.513913,641.907051 247.983913,641.926051 255.643913,638.240051 C262.423913,634.983051 274.053913,637.314051 274.083913,641.934051 C274.113913,647.164051 282.953913,651.416051 293.833913,651.433051 L299.433913,651.442096 C310.303913,651.458051 319.093913,647.232051 319.063913,642.001051 C319.033913,637.381051 330.633913,635.085051 337.443913,638.362051 L337.453913,638.363051 C345.163913,642.073051 357.633913,642.091051 365.293913,638.405051 L369.243913,636.507051 C376.913913,632.821051 376.873913,626.824051 369.153913,623.115051 L369.153913,623.115051 Z" id="Fill-121" fill="#F0E8FF"></path>
            <path d="M278.233913,598.773051 C259.083913,598.773051 243.563913,591.310051 243.563913,582.103051 C243.563913,572.897051 259.083913,565.433051 278.233913,565.433051 C297.373913,565.433051 312.893913,572.897051 312.893913,582.103051 C312.893913,591.310051 297.373913,598.773051 278.233913,598.773051 Z M376.893913,593.232051 L376.913913,570.949051 L361.403913,568.901051 L354.733913,566.240051 C353.953913,564.505051 352.173913,562.851051 349.373913,561.500051 L345.403913,559.591051 C344.553913,559.185051 343.643913,558.831051 342.703913,558.514051 L354.543913,558.058051 L355.163913,543.100051 L303.503913,538.027051 L298.533913,528.042051 L254.253913,529.167051 L260.463913,538.829051 C248.923913,539.545051 234.113913,540.482051 234.113913,540.482051 L231.693913,543.064051 C226.933913,542.802051 198.423913,541.059051 198.423913,541.059051 L198.423913,560.487051 L208.853913,558.970051 C208.533913,559.106051 208.203913,559.237051 207.903913,559.384051 L203.953913,561.282051 C201.043913,562.678051 199.253913,564.407051 198.563913,566.217051 L176.843071,567.405051 L176.843071,591.640051 L177.033913,591.677051 C176.913913,592.096051 176.833913,592.520051 176.843071,592.954051 L176.863913,595.646051 C176.893913,600.876051 185.733913,605.129051 196.613913,605.146051 C197.263913,605.147051 197.883913,605.175051 198.493913,605.224051 L198.583913,620.490051 L198.593913,620.490051 C198.493913,622.983051 200.413913,625.494051 204.383913,627.403051 L208.353913,629.312051 C216.073913,633.021051 228.533913,633.040051 236.203913,629.354051 C242.973913,626.097051 254.603913,628.428051 254.633913,633.048051 C254.673913,638.278051 263.513913,642.531051 274.393913,642.547051 L279.983913,642.556096 C290.863913,642.572051 299.653913,638.345051 299.623913,633.115051 C299.593913,628.495051 311.193913,626.199051 318.003913,629.476051 C325.723913,633.186051 338.193913,633.204051 345.853913,629.518051 L349.803913,627.621051 C354.573913,625.324051 356.363913,622.131051 355.163913,619.153051 L355.163913,605.483051 C355.843913,605.422051 356.543913,605.386051 357.283913,605.387051 C367.813913,605.404051 376.353913,601.441051 376.863913,596.444051 L376.893913,596.439051 L376.893913,596.179051 L376.913913,595.948051 L376.893913,593.256051 L376.893913,593.232051 L376.893913,593.232051 Z" id="Fill-122" fill="#50438F"></path>
            <g id="Group-125" transform="translate(176.543913, 520.386051)">
                <mask id="mask-10" fill="white">
                    <use xlink:href="#path-9"></use>
                </mask>
                <g id="Clip-124"></g>
                <path d="M65.88,65.081 C46.74,55.874 46.64,40.994 65.67,31.845 C84.69,22.695 115.64,22.742 134.78,31.949 C153.93,41.155 154.03,56.036 135,65.185 C115.97,74.334 85.03,74.287 65.88,65.081 Z M173.17,68.293 L173.17,68.293 C166.35,65.016 171.13,59.437 180.74,59.451 C191.61,59.468 200.4,55.241 200.370077,50.012 L200.35,47.319 C200.32,42.09 191.47,37.837 180.6,37.82 C170.99,37.806 166.14,32.213 172.91,28.956 C180.58,25.27 180.54,19.273 172.83,15.563 L168.86,13.655 C161.14,9.945 148.67,9.926 141.01,13.613 C134.23,16.87 122.6,14.538 122.57,9.918 C122.54,4.688 113.69,0.435 102.82,0.419 L97.22,0.409954717 C86.34,0.394 77.56,4.62 77.59,9.851 C77.62,14.471 66.02,16.767 59.2,13.489 C51.49,9.779 39.02,9.761 31.36,13.447 L27.41,15.345 C19.74,19.031 19.78,25.027 27.5,28.737 C34.31,32.014 29.54,37.593 19.93,37.578 C9.05,37.562 0.26,41.788 0.299864021,47.019 L0.32,49.71 C0.35,54.939 9.19,59.192 20.07,59.209 C29.68,59.224 34.53,64.816 27.75,68.073 C20.09,71.76 20.13,77.756 27.84,81.466 L31.81,83.375 C39.53,87.085 51.99,87.104 59.66,83.417 C66.43,80.16 78.06,82.492 78.09,87.112 C78.13,92.342 86.97,96.595 97.85,96.61 L103.44,96.6190511 C114.32,96.636 123.11,92.409 123.08,87.179 C123.05,82.559 134.65,80.263 141.46,83.54 C149.18,87.25 161.65,87.269 169.31,83.582 L173.26,81.685 C180.92,77.998 180.88,72.002 173.17,68.293 L173.17,68.293 Z" id="Fill-123" mask="url(#mask-10)"></path>
            </g>
            <g id="Group-128" transform="translate(119.543913, 230.386051)">
                <mask id="mask-12" fill="white">
                    <use xlink:href="#path-11"></use>
                </mask>
                <g id="Clip-127"></g>
                <path d="M95.66,156.9 C93.91,156.9 92.09,156.67 90.22,156.189 L0.126,133.61 L0.126,0.764 L94.86,25.075 C105.17,27.719 111.68,36.195 111.94,47.31 L113.94,135.817 C114.24,148.231 106.38,156.9 95.66,156.9" id="Fill-126" mask="url(#mask-12)"></path>
            </g>
            <g id="Group-131" transform="translate(119.543913, 145.386051)">
                <mask id="mask-14" fill="white">
                    <use xlink:href="#path-13"></use>
                </mask>
                <g id="Clip-130"></g>
                <path d="M79.09,77.914 C76.79,77.914 74.42,77.598 72.01,76.934 L0.126,57.16 L0.126,0.569 L78.19,22.046 C93,26.121 103.73,41.805 102.03,56.899 L102.03,56.9 C100.6,69.537 90.9,77.915 79.09,77.914" id="Fill-129" mask="url(#mask-14)"></path>
            </g>
            <path d="M518.853913,466.849051 L518.853913,466.849051 C516.333913,466.698051 514.273913,464.583051 514.263913,462.151051 L514.243913,453.698051 C514.243913,451.269051 516.293913,449.405051 518.803913,449.556051 C521.323913,449.708051 523.383913,451.823051 523.383913,454.255051 L523.40395,462.707051 C523.413913,465.137051 521.363913,467.000051 518.853913,466.849051" id="Fill-132" fill="#FF5995"></path>
            <path d="M533.233913,369.255051 C533.233913,369.255051 495.813913,389.982051 486.703913,405.828051 C477.603913,421.674051 513.233913,454.631051 513.233913,454.631051 L524.213913,446.837051 L509.333913,417.823051 L539.093913,394.516051 L533.233913,369.255051" id="Fill-133" fill="#DBA41D"></path>
            <path d="M600.833913,626.921051 C589.893913,621.015051 571.593913,620.581051 559.313913,625.813051 C558.213913,623.301051 555.813913,620.906051 552.083913,618.894051 C540.823913,612.811051 521.753913,612.532051 509.483913,618.269051 C497.213913,624.006051 496.403913,633.588051 507.663913,639.670051 C518.603913,645.576051 536.903913,646.010051 549.183913,640.779051 C550.293913,643.290051 552.683913,645.686051 556.413913,647.698051 C567.673913,653.781051 586.753913,654.060051 599.013913,648.323051 C611.283913,642.585051 612.093913,633.003051 600.833913,626.921051" id="Fill-134" fill="#F0E8FF"></path>
            <path d="M562.923913,367.814051 C562.923913,367.814051 571.873913,370.304051 571.863922,374.899051 C571.853913,379.493051 570.983913,383.731051 570.983913,383.731051 L540.893913,377.393051 L544.013913,364.973051 L562.923913,367.814051" id="Fill-135" fill="#4A3E85"></path>
            <path d="M515.763913,619.866051 L532.403913,608.453051 C534.903913,607.645051 537.903913,607.483051 541.333913,608.488051 C542.873913,608.938051 543.153913,607.784051 543.023913,609.229051 L544.463913,615.354051 C545.863913,619.453051 542.623913,621.920051 537.933913,623.336051 L522.023913,627.886051 C518.723913,628.953051 514.083913,628.353051 511.693913,626.551051 L511.023913,626.041051 C508.643913,624.240051 512.233913,621.774051 515.763913,619.866051" id="Fill-136" fill="#4A3E85"></path>
            <path d="M542.943913,610.348051 C542.673913,615.097051 531.123913,614.440051 531.393913,609.691051 L532.273913,594.259051 L543.823913,594.915051 L542.943913,610.348051" id="Fill-137" fill="#FF5995"></path>
            <path d="M544.813913,604.476051 C539.953913,608.088051 535.113913,607.937051 530.303913,604.093051 C530.303913,604.093051 522.183913,508.654051 524.883913,459.637051 L561.293913,448.270051 C556.723913,478.325051 546.813913,527.677051 546.813913,527.677051 C557.373913,552.415051 547.853913,583.028051 544.813913,604.476051" id="Fill-138" fill="#4A3E85"></path>
            <path d="M561.293913,448.270051 L551.083913,451.457051 C548.283913,469.264051 543.933913,492.543051 540.823913,508.667051 C538.803913,519.173051 538.983913,529.927051 540.823913,540.466051 C544.663913,562.365051 537.633913,586.602051 535.093913,604.476051 C534.373913,605.011051 533.653913,605.453051 532.933913,605.824051 C536.883913,607.864051 540.833913,607.430051 544.813913,604.476051 C547.513913,585.410051 555.333913,559.105051 549.623913,536.120051 C547.923913,529.270051 547.933913,522.109051 549.283913,515.181051 C552.513913,498.559051 558.163913,468.878051 561.293913,448.270051" id="Fill-139" fill="#3A3169"></path>
            <path d="M584.073913,622.242051 C584.563913,626.973051 573.053913,628.162051 572.563913,623.432051 L570.973913,608.057051 L582.483913,606.867051 L584.073913,622.242051" id="Fill-140" fill="#FF5995"></path>
            <path d="M584.933913,616.467051 C579.983913,620.510051 575.173913,621.213051 570.523913,618.113051 C570.523913,618.113051 566.393913,586.415051 559.903913,552.656051 C554.873913,526.526051 547.433913,500.281051 545.723913,479.482051 L579.553913,459.768051 C579.253913,478.254051 580.623913,518.947051 581.263913,536.404051 C581.413913,540.483051 582.443913,544.460051 584.223913,548.131051 C591.993913,564.123051 584.933913,616.467051 584.933913,616.467051" id="Fill-141" fill="#4A3E85"></path>
            <path d="M521.993913,461.922051 C523.153913,445.096051 523.353913,420.745051 522.293913,399.609051 C524.303913,370.582051 536.003913,360.597051 553.833913,368.532051 L561.253913,371.060051 C582.503913,384.474051 593.753913,384.651051 588.193913,407.737051 L582.963913,463.096051 C581.143913,489.454051 518.453913,492.812051 521.993913,461.922051" id="Fill-142" fill="#FBC02D"></path>
            <path d="M588.193913,407.737051 L582.963913,463.096051 C581.903913,478.467051 560.133913,486.016051 542.883913,483.513051 C563.313913,473.277051 577.413913,445.189051 588.193913,407.737051" id="Fill-143" fill="#DBA41D"></path>
            <path d="M570.123913,376.195051 C570.123913,376.195051 570.703913,384.221051 558.623913,389.963051 C552.393913,392.926051 548.983913,398.485051 547.143913,403.173051 C546.063913,405.911051 544.533913,404.389051 544.453913,401.406051 C544.243913,393.646051 544.153913,391.392051 542.993913,385.570051 C541.113913,376.151051 546.163913,362.829051 546.673913,362.768844 C547.183913,362.708051 570.123913,376.195051 570.123913,376.195051" id="Fill-144" fill="#FFFFFF"></path>
            <path d="M554.393913,372.143051 C554.393913,372.143051 543.043913,374.719051 544.703913,385.334051 L543.903913,397.673051 C543.903913,397.673051 536.533913,382.986051 541.633913,370.257051 C546.733913,357.529051 554.393913,372.143051 554.393913,372.143051" id="Fill-145" fill="#4A3E85"></path>
            <path d="M549.413913,369.507051 C549.413913,369.507051 551.433913,372.718051 552.723913,373.368051 C554.003913,374.018051 571.823913,366.132051 570.093913,351.449051 C568.993913,342.150051 551.363913,344.457051 551.363913,344.457051 L549.413913,369.507051" id="Fill-146" fill="#4A3E85"></path>
            <path d="M556.953913,382.987051 L556.073913,383.125051 C553.093913,383.594051 550.273913,381.541051 549.803913,378.564051 L547.163913,361.779051 C546.703913,358.801051 548.753913,355.983051 551.733913,355.515051 L552.613913,355.376051 C555.583913,354.907051 558.403913,356.960051 558.873913,359.938051 L563.783913,375.694051 C564.253913,378.671051 559.933913,382.519051 556.953913,382.987051" id="Fill-147" fill="#FF5995"></path>
            <path d="M548.593913,370.841051 C548.593913,370.841051 555.793913,371.084051 560.563913,364.248051 C560.563913,364.248051 555.903913,374.715051 549.333913,375.534051 L548.593913,370.841051" id="Fill-148" fill="#BA4141"></path>
            <path d="M553.123913,364.830051 C549.563913,371.858051 543.633913,372.893051 539.883913,367.142051 C536.123913,361.392051 535.963913,351.033051 539.513913,344.007051 C543.073913,336.980051 549.003913,335.946051 552.753913,341.696051 C556.513913,347.446051 556.673913,357.804051 553.123913,364.830051" id="Fill-149" fill="#FF5995"></path>
            <path d="M561.413913,363.969051 C557.853913,370.996051 544.703913,374.285051 540.953913,368.535051 C537.193913,362.785051 541.693913,350.303051 545.243913,343.276051 C548.803913,336.249051 554.733913,335.214051 558.493913,340.964051 C562.243913,346.715051 564.963913,356.943051 561.413913,363.969051" id="Fill-150" fill="#FF5995"></path>
            <path d="M554.663913,345.414051 C554.663913,345.414051 551.633913,359.702051 562.773913,364.039051 C562.773913,364.039051 576.393913,357.821051 568.243913,343.004051 C561.063913,329.945051 546.783913,337.988051 546.783913,337.988051 L554.663913,345.414051" id="Fill-151" fill="#4A3E85"></path>
            <path d="M537.043913,353.551051 C537.043913,353.551051 539.173913,347.506051 546.953913,345.611051 L541.353913,341.496051 C541.353913,341.496051 535.143913,342.301051 537.043913,353.551051" id="Fill-152" fill="#4A3E85"></path>
            <path d="M559.833913,354.474051 C557.653913,350.854051 552.283913,350.378051 544.383913,352.396051 C543.183913,352.703051 541.913913,352.781051 540.723913,352.415051 C535.163913,350.702051 534.983913,343.583051 534.983913,343.583051 C534.213913,338.762051 537.523913,336.935051 542.343913,336.160051 L554.903913,334.144051 C562.013913,332.963051 568.183913,339.304051 568.963913,344.125051 L569.203913,344.931051 C569.983913,349.753051 564.663913,353.699051 559.833913,354.474051" id="Fill-153" fill="#4A3E85"></path>
            <path d="M564.093913,363.715051 C563.233913,365.424051 561.143913,366.108051 559.433913,365.243051 C557.723913,364.379051 557.043913,362.293051 557.913913,360.584051 C558.773913,358.876051 560.863913,358.192051 562.563913,359.056051 C564.273913,359.921051 564.963913,362.007051 564.093913,363.715051" id="Fill-154" fill="#FF5995"></path>
            <path d="M572.513913,622.780051 L573.333913,632.565051 C573.423913,633.720051 574.553913,639.813051 575.043913,640.863051 C576.463913,643.897051 578.803913,645.117051 581.063913,645.272051 C584.063913,645.477051 590.083913,640.177051 587.933913,633.602051 C586.063913,627.870051 584.043913,621.830051 584.043913,621.830051 C579.813913,623.773051 575.883913,624.445051 572.513913,622.780051" id="Fill-155" fill="#4A3E85"></path>
            <path d="M544.693913,367.829051 L544.693913,367.829051 C543.133913,367.365051 541.703913,365.049051 541.503913,362.656051 L547.143913,364.335051 C547.343913,366.729051 546.243913,368.293051 544.693913,367.829051" id="Fill-156" fill="#FFFFFF"></path>
            <path d="M575.893913,480.436051 L575.893913,480.436051 C578.373913,480.849051 580.853913,479.247051 581.403913,476.877051 L583.313913,468.642051 C583.853913,466.275051 582.273913,464.001051 579.793913,463.589051 C577.303913,463.176051 574.823913,464.778051 574.273913,467.148051 L572.373913,475.383051 C571.823913,477.750051 573.403913,480.024051 575.893913,480.436051" id="Fill-157" fill="#FF5995"></path>
            <path d="M585.663913,386.692051 C585.663913,386.692051 619.553913,419.274051 624.893913,436.750051 C630.233913,454.227051 584.083913,469.777051 584.083913,469.777051 L575.113913,459.732051 L598.703913,438.673051 L567.023913,412.745051 L585.663913,386.692051" id="Fill-158" fill="#FBC02D"></path>
            <path d="M582.353913,467.836051 L584.083913,469.777051 C584.083913,469.777051 630.233913,454.227051 624.893913,436.750051 C619.553913,419.274051 585.663913,386.692051 585.663913,386.692051 C581.353913,382.364051 576.903913,379.163051 572.273913,377.542051 L570.123913,382.546051 C583.743913,395.741051 618.523913,432.657051 618.143913,438.910051 C617.643913,447.138051 596.803913,463.524051 582.353913,467.836051" id="Fill-159" fill="#DBA41D"></path>
            <path d="M565.143913,368.466051 C565.143913,368.466051 572.103913,378.681051 557.363913,385.028051 C557.363913,385.028051 551.433913,390.258051 550.823913,396.473051 C550.823913,396.473051 555.863913,393.111051 558.773913,391.293051 C561.683913,389.476051 583.213913,378.406051 565.143913,368.466051" id="Fill-160" fill="#4A3E85"></path>
            <path d="M513.233913,454.631051 L521.853913,448.516051 C521.853913,448.516051 503.313913,402.866051 486.703913,405.828051 C477.603913,421.674051 513.233913,454.631051 513.233913,454.631051" id="Fill-161" fill="#FBC02D"></path>
            <path d="M378.373913,409.796051 L314.503913,393.365051 C303.303913,390.484051 300.403913,383.446051 308.053913,377.724051 C315.713913,372.002051 331.143913,369.678051 342.343913,372.560051 L406.213913,388.990051 C417.413913,391.871051 420.313913,398.910051 412.653913,404.632051 C405.003913,410.354051 389.573913,412.677051 378.373913,409.796051" id="Fill-162" fill="#8559DA"></path>
            <polyline id="Fill-163" fill="#8559DA" points="303.803913 310.907051 303.773913 383.687051 416.933913 397.816051 416.933913 324.639051 303.803913 310.907051"></polyline>
            <path d="M388.023913,320.525051 L388.023913,394.741051 L388.013913,394.740051 C388.043913,397.764051 386.203913,400.936051 382.293913,403.853051 C380.093913,405.499051 377.403913,406.935051 374.393913,408.136051 L378.623913,409.223051 C389.823913,412.104051 405.253913,409.780051 412.903913,404.058051 C415.823913,401.876051 417.203913,399.503051 417.184128,397.241051 L417.184128,397.242051 L416.893913,325.457051 L388.023913,320.525051" id="Fill-164" fill="#764FC2"></path>
            <path d="M349.893913,393.610051 L349.893913,393.610051 C346.193913,392.329051 343.173913,388.260051 343.173913,384.566051 L343.173913,363.532051 C343.173913,359.838051 346.193913,357.864051 349.893913,359.144051 C353.583913,360.424051 356.603913,364.494051 356.603913,368.188051 L356.603913,389.222051 C356.603913,392.916051 353.583913,394.891051 349.893913,393.610051" id="Fill-165" fill="#140078"></path>
            <path d="M361.793913,361.873051 C362.413913,368.407051 357.583913,373.112051 351.013913,372.381051 C344.433913,371.650051 338.593913,365.760051 337.983913,359.226051 C337.363913,352.692051 342.193913,347.988051 348.763913,348.718051 C355.343913,349.449051 361.183913,355.338051 361.793913,361.873051" id="Fill-166" fill="#140078"></path>
            <path d="M347.883913,386.607051 L347.883913,370.873051 C345.033913,368.409051 343.033913,364.940051 342.683913,361.267051 C342.063913,354.733051 346.903913,350.028051 353.473913,350.759051 C353.963913,350.814051 354.453913,350.906051 354.933913,351.016051 C353.073913,349.790051 350.963913,348.962051 348.763913,348.718051 C342.193913,347.988051 337.363913,352.692051 337.983913,359.226051 C338.323913,362.900051 340.323913,366.368051 343.173913,368.833051 L343.173913,384.566051 C343.173913,388.260051 346.193913,392.329051 349.893913,393.610051 C350.523913,393.828051 351.123913,393.946051 351.703913,393.982051 C349.453913,392.114051 347.883913,389.266051 347.883913,386.607051" id="Fill-167" fill="#60419E"></path>
            <path d="M378.373913,336.727051 L314.503913,320.295051 C303.303913,317.414051 300.403913,310.375051 308.053913,304.655051 C315.713913,298.933051 331.143913,296.609051 342.343913,299.490051 L406.213913,315.920051 C417.413913,318.802051 420.313913,325.840051 412.653913,331.562051 C405.003913,337.283051 389.573913,339.608051 378.373913,336.727051" id="Fill-168" fill="#9161ED"></path>
            <path d="M390.623913,322.369051 C390.623913,324.665051 386.523913,326.526051 381.453913,326.526051 C376.383913,326.526051 372.273913,324.665051 372.273913,322.369051 C372.273913,320.074051 376.383913,318.213051 381.453913,318.213051 C386.523913,318.213051 390.623913,320.074051 390.623913,322.369051" id="Fill-169" fill="#3A3169"></path>
            <path d="M348.413913,311.569051 C348.413913,313.865051 344.303913,315.725051 339.233913,315.725051 C334.173913,315.725051 330.063913,313.865051 330.063913,311.569051 C330.063913,309.274051 334.173913,307.412051 339.233913,307.412051 C344.303913,307.412051 348.413913,309.274051 348.413913,311.569051" id="Fill-170" fill="#3A3169"></path>
            <path d="M360.433913,253.503051 C360.433913,253.503051 324.043913,245.169051 330.063913,311.569051 L348.413913,311.569051 C348.413913,311.569051 343.223913,274.492051 357.803913,275.332051 C357.803913,275.332051 360.023913,275.280051 361.273913,275.901051 C365.293913,277.915051 374.853913,286.079051 372.323913,322.702051 L390.673913,322.702051 C390.673913,322.702051 398.423913,258.121051 360.433913,253.503051" id="Fill-171" fill="#3A3169"></path>
            <path d="M314.413913,320.643051 L378.283913,337.074051 C378.283913,337.076051 379.743913,337.444051 381.533913,337.812051 C383.333913,338.180051 385.453913,338.551051 386.833913,338.553051 C387.133913,338.553051 387.403913,338.535051 387.643913,338.490051 C387.873913,338.442051 388.083913,338.377051 388.263913,338.215051 C388.413913,338.079051 388.413913,337.852051 388.283913,337.708051 C388.143913,337.563051 387.913913,337.556051 387.773913,337.692051 C387.773913,337.700051 387.673913,337.755051 387.503913,337.785051 C387.343913,337.818051 387.103913,337.835051 386.833913,337.835051 C385.573913,337.837051 383.453913,337.474051 381.683913,337.109051 C380.793913,336.926051 379.983913,336.744051 379.403913,336.607051 C378.823913,336.470051 378.463913,336.379051 378.463913,336.379051 L314.593913,319.947051 C314.393913,319.898051 314.203913,320.014051 314.153913,320.206051 C314.103913,320.398051 314.213913,320.594051 314.413913,320.643051" id="Fill-172" fill="#FFFCFA"></path>
            <path d="M371.913913,322.402051 C371.923913,322.457051 372.043913,323.597051 373.263913,324.714051 C374.473913,325.832051 376.743913,326.891051 380.953913,326.889053 C381.123913,326.889053 381.283913,326.888051 381.453913,326.885051 C385.893913,326.800051 388.283913,325.834051 389.573913,324.835051 C390.873913,323.837051 391.023913,322.813051 391.033913,322.745051 C391.053913,322.548051 390.913913,322.370051 390.713913,322.346051 C390.523913,322.322051 390.343913,322.463051 390.313913,322.660051 L390.393913,322.669051 L390.313913,322.657051 L390.313913,322.659051 L390.393913,322.669051 L390.313913,322.657051 C390.313913,322.694051 390.183913,323.501051 389.023913,324.349051 C387.873913,325.196051 385.653913,326.086051 381.443913,326.167051 C381.273913,326.170051 381.113913,326.171051 380.953913,326.171051 C376.863913,326.170051 374.793913,325.148051 373.743913,324.185051 C373.223913,323.702051 372.943913,323.228051 372.793913,322.880051 C372.723913,322.705051 372.683913,322.562051 372.653913,322.467051 L372.633913,322.360051 L372.633913,322.337051 C372.613913,322.139051 372.443913,321.994051 372.243913,322.012051 C372.043913,322.030051 371.903913,322.204051 371.913913,322.402051" id="Fill-173" fill="#FFFCFA"></path>
            <path d="M328.973913,311.601051 C328.973913,311.657051 329.093913,312.796051 330.313913,313.913051 C331.523913,315.031051 333.803913,316.090051 338.013913,316.089051 C338.173913,316.089051 338.343913,316.087051 338.513913,316.084051 C342.953913,315.999051 345.333913,315.033051 346.633913,314.034051 C347.923913,313.036051 348.083913,312.012051 348.083913,311.944051 C348.103913,311.748051 347.963913,311.569051 347.773913,311.545051 C347.573913,311.521051 347.393913,311.662051 347.373913,311.859051 L347.453913,311.868051 L347.373913,311.856051 L347.373913,311.859051 L347.453913,311.868051 L347.373913,311.856051 C347.363913,311.894051 347.233913,312.700051 346.083913,313.548051 C344.923913,314.395051 342.703913,315.286051 338.493913,315.366051 C338.333913,315.369051 338.163913,315.371051 338.013913,315.371051 C333.913913,315.369051 331.843913,314.348051 330.793913,313.385051 C330.273913,312.902051 329.993913,312.428051 329.843913,312.079051 C329.773913,311.905051 329.733913,311.762051 329.713913,311.666051 L329.693913,311.560051 L329.683913,311.537051 L329.683913,311.536051 C329.663913,311.339051 329.493913,311.193051 329.293913,311.211051 C329.103913,311.229051 328.953913,311.404051 328.973913,311.601051" id="Fill-174" fill="#FFFCFA"></path>
            <g id="Group-177" transform="translate(22.543913, 226.386051)">
                <mask id="mask-16" fill="white">
                    <use xlink:href="#path-15"></use>
                </mask>
                <g id="Clip-176"></g>
                <path d="M192.63,64.154 C192.37,53.04 185.86,44.564 175.55,41.919 L15.898,0.95 C7.156,-1.294 0.215,5.779 0.474,16.666 L2.797,114.252 C3.043,124.559 9.081,132.419 18.637,134.871 L170.91,173.034 C184.29,176.47 194.98,167.097 194.63,152.661 L192.63,64.154" id="Fill-175" mask="url(#mask-16)"></path>
            </g>
            <g id="Group-180" transform="translate(48.543913, 293.386051)">
                <mask id="mask-18" fill="white">
                    <use xlink:href="#path-17"></use>
                </mask>
                <g id="Clip-179"></g>
                <path d="M0.632,30.116 C0.632,30.116 8.37,18.981 23.191,22.846 C34.522,25.8 28.621,26.74 42.153,27.598 C50.132,28.103 62.154,12.524 81.898,16.39 C117.64,23.387 129.32,-9.251 145.08,3.79 L146.8,80.548 L0.89,41.655 L0.632,30.116" id="Fill-178" mask="url(#mask-18)"></path>
            </g>
            <path d="M49.9819134,335.459051 L48.2639134,258.776051 C48.2569134,258.478051 48.0099134,258.242051 47.7129134,258.248899 C47.4149134,258.256051 47.1789134,258.502051 47.1859134,258.800051 L48.9049134,335.483051 C48.9109134,335.781051 49.1579134,336.016051 49.4549134,336.010163 C49.7529134,336.003051 49.9889134,335.756051 49.9819134,335.459051" id="Fill-181" fill="#FFFFFF"></path>
            <path d="M86.3049134,344.265051 L84.5859134,267.581051 C84.5789134,267.284051 84.3329134,267.048051 84.0349134,267.054899 C83.7369134,267.061051 83.5009134,267.308051 83.5079134,267.606051 L85.2269134,344.289051 C85.2339134,344.586051 85.4799134,344.822051 85.7779134,344.815202 C86.0749134,344.809051 86.3109134,344.562051 86.3049134,344.265051" id="Fill-182" fill="#FFFFFF"></path>
            <path d="M122.647913,354.033051 L120.928913,277.350051 C120.921913,277.052051 120.674913,276.816051 120.377913,276.822899 C120.079913,276.829051 119.843913,277.076051 119.850913,277.374051 L121.570913,354.057051 C121.576913,354.355051 121.823913,354.591051 122.121913,354.584202 C122.418913,354.577051 122.654913,354.331051 122.647913,354.033051" id="Fill-183" fill="#FFFFFF"></path>
            <path d="M158.993913,363.782051 L157.273913,287.099051 C157.263913,286.801051 157.023913,286.565051 156.723913,286.571899 C156.423913,286.578051 156.183913,286.825051 156.193913,287.123051 L157.913913,363.806051 C157.923913,364.104051 158.163913,364.340051 158.463913,364.333202 C158.763913,364.326051 158.993913,364.080051 158.993913,363.782051" id="Fill-184" fill="#FFFFFF"></path>
            <path d="M195.363913,374.719051 L193.643913,298.036051 C193.633913,297.738051 193.383913,297.503051 193.093913,297.508938 C192.793913,297.516051 192.553913,297.763051 192.563913,298.060051 L194.283913,374.743051 C194.293913,375.040051 194.533913,375.276051 194.833913,375.270162 C195.133913,375.263051 195.363913,375.016051 195.363913,374.719051" id="Fill-185" fill="#FFFFFF"></path>
            <path d="M192.513913,290.587051 L187.713913,289.047051 C187.183913,288.877051 186.743913,288.206051 186.723913,287.556051 C186.713913,286.907051 187.133913,286.515051 187.663913,286.685051 L192.463913,288.225051 C192.993913,288.395051 193.443913,289.066051 193.453913,289.716051 C193.463913,290.365051 193.043913,290.757051 192.513913,290.587051" id="Fill-186" fill="#FFFFFF"></path>
            <path d="M155.663913,282.114051 L150.863913,280.574051 C150.333913,280.404051 149.883913,279.733051 149.873913,279.084051 C149.853913,278.434051 150.283913,278.042051 150.813913,278.213051 L155.613913,279.753051 C156.143913,279.923051 156.583913,280.594051 156.603913,281.243051 C156.613913,281.892051 156.193913,282.284051 155.663913,282.114051" id="Fill-187" fill="#FFFFFF"></path>
            <path d="M119.616913,273.647051 L114.818913,272.107051 C114.287913,271.937051 113.841913,271.266051 113.826913,270.616051 C113.813913,269.967051 114.234913,269.575051 114.766913,269.745051 L119.564913,271.285051 C120.095913,271.455051 120.541913,272.126051 120.555913,272.776051 C120.569913,273.425051 120.148913,273.817051 119.616913,273.647051" id="Fill-188" fill="#FFFFFF"></path>
            <path d="M83.0479134,264.885051 L78.2499134,263.345051 C77.7189134,263.175051 77.2729134,262.504051 77.2579134,261.854051 C77.2439134,261.205051 77.6659134,260.813051 78.1969134,260.983051 L82.9949134,262.523051 C83.5259134,262.694051 83.9729134,263.364051 83.9859134,264.014051 C84.0009134,264.663051 83.5789134,265.055051 83.0479134,264.885051" id="Fill-189" fill="#FFFFFF"></path>
            <path d="M47.0089134,255.782051 L42.2109134,254.243051 C41.6799134,254.073051 41.2339134,253.402051 41.2189134,252.752051 C41.2039134,252.103051 41.6269134,251.711051 42.1579134,251.881051 L46.9559134,253.421051 C47.4869134,253.591051 47.9329134,254.262051 47.9469134,254.911051 C47.9619134,255.561051 47.5399134,255.953051 47.0089134,255.782051" id="Fill-190" fill="#FFFFFF"></path>
            <path d="M53.5739134,344.925051 L48.8189134,343.578051 L48.7759134,343.572051 L45.2449134,342.572051 C44.7199134,342.422051 44.3029134,342.838051 44.3189134,343.496051 C44.3359134,344.155051 44.7789134,344.815051 45.3059134,344.964051 L50.0599134,346.311051 L50.1049134,346.318051 L53.6349134,347.318051 C54.1599134,347.467051 54.5769134,347.051051 54.5609134,346.393051 C54.5439134,345.735051 54.1009134,345.074051 53.5739134,344.925051" id="Fill-191" fill="#FFFFFF"></path>
            <path d="M86.2419134,353.439051 L81.4879134,352.091051 L81.4439134,352.084051 L77.9129134,351.084051 C77.3879134,350.936051 76.9709134,351.352051 76.9869134,352.010051 C77.0039134,352.667051 77.4469134,353.327051 77.9739134,353.477051 L82.7289134,354.824051 L82.7729134,354.831051 L86.3029134,355.831051 C86.8279134,355.980051 87.2449134,355.564051 87.2289134,354.906051 C87.2119134,354.248051 86.7689134,353.588051 86.2419134,353.439051" id="Fill-192" fill="#FFFFFF"></path>
            <path d="M118.910913,361.951051 L114.155913,360.605051 L114.111913,360.598051 L110.581913,359.598051 C110.055913,359.449051 109.638913,359.865051 109.654913,360.523051 C109.671913,361.181051 110.114913,361.841051 110.641913,361.990051 L115.396913,363.337051 L115.440913,363.344051 L118.970913,364.344051 C119.496913,364.493051 119.912913,364.077051 119.897913,363.419051 C119.880913,362.761051 119.436913,362.101051 118.910913,361.951051" id="Fill-193" fill="#FFFFFF"></path>
            <path d="M156.083913,371.561051 L151.323913,370.213051 L151.283913,370.206051 L147.753913,369.206051 C147.223913,369.057051 146.813913,369.474051 146.823913,370.131051 C146.843913,370.789051 147.283913,371.449051 147.813913,371.599051 L152.563913,372.946051 L152.613913,372.952051 L156.143913,373.953051 C156.663913,374.102051 157.083913,373.686051 157.063913,373.028051 C157.053913,372.369051 156.603913,371.709051 156.083913,371.561051" id="Fill-194" fill="#FFFFFF"></path>
            <path d="M192.273913,381.431051 L187.513913,380.084051 L187.473913,380.077051 L183.943913,379.077051 C183.413913,378.928051 183.003913,379.344051 183.013913,380.002051 C183.033913,380.660051 183.473913,381.321051 184.003913,381.470051 L188.753913,382.817051 L188.803913,382.824051 L192.333913,383.824051 C192.853913,383.973051 193.273913,383.557051 193.253913,382.899051 C193.243913,382.240051 192.793913,381.580051 192.273913,381.431051" id="Fill-195" fill="#FFFFFF"></path>
            <path d="M180.353913,235.959051 L60.5449134,202.998051 C45.7329134,198.923051 35.0049134,183.239051 36.7059134,168.145051 C38.4069134,153.051051 51.9169134,144.034051 66.7299134,148.109051 L186.533913,181.070051 C201.353913,185.145051 212.073913,200.829051 210.373913,215.923051 C208.673913,231.018051 195.163913,240.033051 180.353913,235.959051" id="Fill-196" fill="#7B52C9"></path>
            <polyline id="Fill-197" fill="#FFFFFF" points="78.5509134 178.658051 74.7489134 177.738051 77.5549134 175.883051 75.0009134 172.745051 72.1949134 174.600051 72.3619134 171.056051 68.5839134 170.142051 68.4169134 173.687051 65.8469134 170.530051 63.0579134 172.375051 65.6269134 175.531051 61.8259134 174.611051 61.6589134 178.134051 65.4619134 179.053051 62.6539134 180.909051 65.2089134 184.046051 68.0159134 182.189051 67.8489134 185.736051 71.6279134 186.650051 71.7949134 183.105051 74.3639134 186.261051 77.1529134 184.418051 74.5819134 181.261051 78.3849134 182.181051 78.5509134 178.658051"></polyline>
            <polyline id="Fill-198" fill="#FFFFFF" points="98.9749134 183.977051 95.1719134 183.057051 97.9779134 181.202051 95.4239134 178.065051 92.6179134 179.919051 92.7859134 176.375051 89.0069134 175.461051 88.8399134 179.006051 86.2699134 175.849051 83.4819134 177.694051 86.0499134 180.849051 82.2489134 179.929051 82.0829134 183.452051 85.8849134 184.372051 83.0769134 186.228051 85.6319134 189.365051 88.4399134 187.508051 88.2719134 191.054051 92.0509134 191.969051 92.2179134 188.424051 94.7879134 191.581051 97.5759134 189.737051 95.0059134 186.580051 98.8089134 187.500051 98.9749134 183.977051"></polyline>
            <polyline id="Fill-199" fill="#FFFFFF" points="119.397913 189.296051 115.594913 188.376051 118.400913 186.521051 115.846913 183.384051 113.041913 185.239051 113.208913 181.695051 109.429913 180.780051 109.262913 184.325051 106.691913 181.168051 103.903913 183.013051 106.473913 186.169051 102.671913 185.249051 102.505913 188.771051 106.307913 189.692051 103.499913 191.547051 106.054913 194.684051 108.861913 192.827051 108.694913 196.373051 112.473913 197.288051 112.640913 193.743051 115.210913 196.900051 117.999913 195.056051 115.428913 191.899051 119.231913 192.819051 119.397913 189.296051"></polyline>
            <polyline id="Fill-200" fill="#FFFFFF" points="139.823913 194.615051 136.018913 193.695051 138.823913 191.840051 136.270913 188.702051 133.464913 190.557051 133.631913 187.013051 129.853913 186.099051 129.685913 189.644051 127.114913 186.487051 124.326913 188.332051 126.896913 191.488051 123.094913 190.568051 122.928913 194.091051 126.730913 195.011051 123.923913 196.866051 126.477913 200.003051 129.284913 198.146051 129.117913 201.693051 132.896913 202.607051 133.063913 199.062051 135.633913 202.219051 138.423913 200.375051 135.851913 197.218051 139.653913 198.138051 139.823913 194.615051"></polyline>
            <polyline id="Fill-201" fill="#FFFFFF" points="160.243913 199.934051 156.443913 199.014051 159.243913 197.159051 156.693913 194.022051 153.883913 195.877051 154.053913 192.332051 150.273913 191.418051 150.113913 194.963051 147.533913 191.806051 144.753913 193.651051 147.323913 196.806051 143.513913 195.886051 143.353913 199.409051 147.153913 200.330051 144.343913 202.185051 146.903913 205.322051 149.703913 203.465051 149.543913 207.011051 153.323913 207.926051 153.483913 204.381051 156.053913 207.538051 158.843913 205.694051 156.273913 202.537051 160.073913 203.457051 160.243913 199.934051"></polyline>
            <polyline id="Fill-202" fill="#FFFFFF" points="180.663913 205.253051 176.863913 204.333051 179.673913 202.478051 177.113913 199.341051 174.313913 201.196051 174.473913 197.652051 170.703913 196.737051 170.533913 200.282051 167.963913 197.125051 165.173913 198.970051 167.743913 202.126051 163.943913 201.206051 163.773913 204.728051 167.573913 205.649051 164.773913 207.504051 167.323913 210.641051 170.133913 208.784051 169.963913 212.330051 173.743913 213.245051 173.913913 209.700051 176.483913 212.857051 179.263913 211.013051 176.693913 207.856051 180.503913 208.776051 180.663913 205.253051"></polyline>
            <path d="M573.783913,221.135051 L587.183913,243.583051 C587.383913,243.918051 587.723913,244.130051 588.113913,244.155051 C588.503913,244.180051 588.873913,244.014051 589.113913,243.707051 L612.473913,213.972051 C612.873913,213.461051 612.783913,212.720051 612.273913,212.319051 C611.763913,211.917051 611.023913,212.006051 610.623913,212.518051 L588.323913,240.904051 L575.813913,219.928051 C575.473913,219.370051 574.753913,219.187051 574.193913,219.520051 C573.633913,219.854051 573.453913,220.576051 573.783913,221.135051" id="Fill-203" fill="#263238"></path>
        </g>
    </g>
</svg>